# Generated by VESAsterizer modelgen
# Vertices: 520, Faces: 1024

v 1.000000 -1.500000 0.000000
v 0.941421 -1.500000 0.141421
v 0.800000 -1.500000 0.200000
v 0.658579 -1.500000 0.141421
v 0.600000 -1.500000 0.000000
v 0.658579 -1.500000 -0.141421
v 0.800000 -1.500000 -0.200000
v 0.941421 -1.500000 -0.141421
v 0.956940 -1.453125 0.290285
v 0.859832 -1.453125 0.408612
v 0.707495 -1.453125 0.423616
v 0.589168 -1.453125 0.326507
v 0.574164 -1.453125 0.174171
v 0.671273 -1.453125 0.055843
v 0.823609 -1.453125 0.040840
v 0.941937 -1.453125 0.137948
v 0.831470 -1.406250 0.555570
v 0.704194 -1.406250 0.640613
v 0.554062 -1.406250 0.610750
v 0.469019 -1.406250 0.483474
v 0.498882 -1.406250 0.333342
v 0.626158 -1.406250 0.248299
v 0.776290 -1.406250 0.278162
v 0.861333 -1.406250 0.405438
v 0.634393 -1.359375 0.773010
v 0.487911 -1.359375 0.817445
v 0.352913 -1.359375 0.745287
v 0.308478 -1.359375 0.598805
v 0.380636 -1.359375 0.463806
v 0.527118 -1.359375 0.419371
v 0.662117 -1.359375 0.491530
v 0.706552 -1.359375 0.638012
v 0.382683 -1.312500 0.923880
v 0.229610 -1.312500 0.923880
v 0.121371 -1.312500 0.815640
v 0.121371 -1.312500 0.662567
v 0.229610 -1.312500 0.554328
v 0.382683 -1.312500 0.554328
v 0.490923 -1.312500 0.662567
v 0.490923 -1.312500 0.815640
v 0.098017 -1.265625 0.995185
v -0.048465 -1.265625 0.950750
v -0.120623 -1.265625 0.815751
v -0.076188 -1.265625 0.669269
v 0.058810 -1.265625 0.597111
v 0.205292 -1.265625 0.641546
v 0.277451 -1.265625 0.776544
v 0.233016 -1.265625 0.923026
v -0.195090 -1.218750 0.980785
v -0.322366 -1.218750 0.895742
v -0.352229 -1.218750 0.745610
v -0.267186 -1.218750 0.618334
v -0.117054 -1.218750 0.588471
v 0.010222 -1.218750 0.673514
v 0.040085 -1.218750 0.823646
v -0.044958 -1.218750 0.950922
v -0.471397 -1.171875 0.881921
v -0.568505 -1.171875 0.763594
v -0.553502 -1.171875 0.611258
v -0.435174 -1.171875 0.514149
v -0.282838 -1.171875 0.529153
v -0.185729 -1.171875 0.647480
v -0.200733 -1.171875 0.799816
v -0.319060 -1.171875 0.896925
v -0.707107 -1.125000 0.707107
v -0.765685 -1.125000 0.565685
v -0.707107 -1.125000 0.424264
v -0.565685 -1.125000 0.365685
v -0.424264 -1.125000 0.424264
v -0.365685 -1.125000 0.565685
v -0.424264 -1.125000 0.707107
v -0.565685 -1.125000 0.765685
v -0.881921 -1.078125 0.471397
v -0.896925 -1.078125 0.319060
v -0.799816 -1.078125 0.200733
v -0.647480 -1.078125 0.185729
v -0.529153 -1.078125 0.282838
v -0.514149 -1.078125 0.435174
v -0.611258 -1.078125 0.553502
v -0.763594 -1.078125 0.568505
v -0.980785 -1.031250 0.195090
v -0.950922 -1.031250 0.044958
v -0.823646 -1.031250 -0.040085
v -0.673514 -1.031250 -0.010222
v -0.588471 -1.031250 0.117054
v -0.618334 -1.031250 0.267186
v -0.745610 -1.031250 0.352229
v -0.895742 -1.031250 0.322366
v -0.995185 -0.984375 -0.098017
v -0.923026 -0.984375 -0.233016
v -0.776544 -0.984375 -0.277451
v -0.641546 -0.984375 -0.205292
v -0.597111 -0.984375 -0.058810
v -0.669269 -0.984375 0.076188
v -0.815751 -0.984375 0.120623
v -0.950750 -0.984375 0.048465
v -0.923880 -0.937500 -0.382683
v -0.815640 -0.937500 -0.490923
v -0.662567 -0.937500 -0.490923
v -0.554328 -0.937500 -0.382683
v -0.554328 -0.937500 -0.229610
v -0.662567 -0.937500 -0.121371
v -0.815640 -0.937500 -0.121371
v -0.923880 -0.937500 -0.229610
v -0.773010 -0.890625 -0.634393
v -0.638012 -0.890625 -0.706552
v -0.491530 -0.890625 -0.662117
v -0.419371 -0.890625 -0.527118
v -0.463806 -0.890625 -0.380636
v -0.598805 -0.890625 -0.308478
v -0.745287 -0.890625 -0.352913
v -0.817445 -0.890625 -0.487911
v -0.555570 -0.843750 -0.831470
v -0.405438 -0.843750 -0.861333
v -0.278162 -0.843750 -0.776290
v -0.248299 -0.843750 -0.626158
v -0.333342 -0.843750 -0.498882
v -0.483474 -0.843750 -0.469019
v -0.610750 -0.843750 -0.554062
v -0.640613 -0.843750 -0.704194
v -0.290285 -0.796875 -0.956940
v -0.137948 -0.796875 -0.941937
v -0.040840 -0.796875 -0.823609
v -0.055843 -0.796875 -0.671273
v -0.174171 -0.796875 -0.574164
v -0.326507 -0.796875 -0.589168
v -0.423616 -0.796875 -0.707495
v -0.408612 -0.796875 -0.859832
v -0.000000 -0.750000 -1.000000
v 0.141421 -0.750000 -0.941421
v 0.200000 -0.750000 -0.800000
v 0.141421 -0.750000 -0.658579
v -0.000000 -0.750000 -0.600000
v -0.141421 -0.750000 -0.658579
v -0.200000 -0.750000 -0.800000
v -0.141421 -0.750000 -0.941421
v 0.290285 -0.703125 -0.956940
v 0.408612 -0.703125 -0.859832
v 0.423616 -0.703125 -0.707495
v 0.326507 -0.703125 -0.589168
v 0.174171 -0.703125 -0.574164
v 0.055843 -0.703125 -0.671273
v 0.040840 -0.703125 -0.823609
v 0.137948 -0.703125 -0.941937
v 0.555570 -0.656250 -0.831470
v 0.640613 -0.656250 -0.704194
v 0.610750 -0.656250 -0.554062
v 0.483474 -0.656250 -0.469019
v 0.333342 -0.656250 -0.498882
v 0.248299 -0.656250 -0.626158
v 0.278162 -0.656250 -0.776290
v 0.405438 -0.656250 -0.861333
v 0.773010 -0.609375 -0.634393
v 0.817445 -0.609375 -0.487911
v 0.745287 -0.609375 -0.352913
v 0.598805 -0.609375 -0.308478
v 0.463806 -0.609375 -0.380636
v 0.419371 -0.609375 -0.527118
v 0.491530 -0.609375 -0.662117
v 0.638012 -0.609375 -0.706552
v 0.923880 -0.562500 -0.382683
v 0.923880 -0.562500 -0.229610
v 0.815640 -0.562500 -0.121371
v 0.662567 -0.562500 -0.121371
v 0.554328 -0.562500 -0.229610
v 0.554328 -0.562500 -0.382683
v 0.662567 -0.562500 -0.490923
v 0.815640 -0.562500 -0.490923
v 0.995185 -0.515625 -0.098017
v 0.950750 -0.515625 0.048465
v 0.815751 -0.515625 0.120623
v 0.669269 -0.515625 0.076188
v 0.597111 -0.515625 -0.058810
v 0.641546 -0.515625 -0.205292
v 0.776544 -0.515625 -0.277451
v 0.923026 -0.515625 -0.233016
v 0.980785 -0.468750 0.195090
v 0.895742 -0.468750 0.322366
v 0.745610 -0.468750 0.352229
v 0.618334 -0.468750 0.267186
v 0.588471 -0.468750 0.117054
v 0.673514 -0.468750 -0.010222
v 0.823646 -0.468750 -0.040085
v 0.950922 -0.468750 0.044958
v 0.881921 -0.421875 0.471397
v 0.763594 -0.421875 0.568505
v 0.611258 -0.421875 0.553502
v 0.514149 -0.421875 0.435174
v 0.529153 -0.421875 0.282838
v 0.647480 -0.421875 0.185729
v 0.799816 -0.421875 0.200733
v 0.896925 -0.421875 0.319060
v 0.707107 -0.375000 0.707107
v 0.565685 -0.375000 0.765685
v 0.424264 -0.375000 0.707107
v 0.365685 -0.375000 0.565685
v 0.424264 -0.375000 0.424264
v 0.565685 -0.375000 0.365685
v 0.707107 -0.375000 0.424264
v 0.765685 -0.375000 0.565685
v 0.471397 -0.328125 0.881921
v 0.319060 -0.328125 0.896925
v 0.200733 -0.328125 0.799816
v 0.185729 -0.328125 0.647480
v 0.282838 -0.328125 0.529153
v 0.435174 -0.328125 0.514149
v 0.553502 -0.328125 0.611258
v 0.568505 -0.328125 0.763594
v 0.195090 -0.281250 0.980785
v 0.044958 -0.281250 0.950922
v -0.040085 -0.281250 0.823646
v -0.010222 -0.281250 0.673514
v 0.117054 -0.281250 0.588471
v 0.267186 -0.281250 0.618334
v 0.352229 -0.281250 0.745610
v 0.322366 -0.281250 0.895742
v -0.098017 -0.234375 0.995185
v -0.233016 -0.234375 0.923026
v -0.277451 -0.234375 0.776544
v -0.205292 -0.234375 0.641546
v -0.058810 -0.234375 0.597111
v 0.076188 -0.234375 0.669269
v 0.120623 -0.234375 0.815751
v 0.048465 -0.234375 0.950750
v -0.382683 -0.187500 0.923880
v -0.490923 -0.187500 0.815640
v -0.490923 -0.187500 0.662567
v -0.382683 -0.187500 0.554328
v -0.229610 -0.187500 0.554328
v -0.121371 -0.187500 0.662567
v -0.121371 -0.187500 0.815640
v -0.229610 -0.187500 0.923880
v -0.634393 -0.140625 0.773010
v -0.706552 -0.140625 0.638012
v -0.662117 -0.140625 0.491530
v -0.527118 -0.140625 0.419371
v -0.380636 -0.140625 0.463806
v -0.308478 -0.140625 0.598805
v -0.352913 -0.140625 0.745287
v -0.487911 -0.140625 0.817445
v -0.831470 -0.093750 0.555570
v -0.861333 -0.093750 0.405438
v -0.776290 -0.093750 0.278162
v -0.626158 -0.093750 0.248299
v -0.498882 -0.093750 0.333342
v -0.469019 -0.093750 0.483474
v -0.554062 -0.093750 0.610750
v -0.704194 -0.093750 0.640613
v -0.956940 -0.046875 0.290285
v -0.941937 -0.046875 0.137948
v -0.823609 -0.046875 0.040840
v -0.671273 -0.046875 0.055843
v -0.574164 -0.046875 0.174171
v -0.589168 -0.046875 0.326507
v -0.707495 -0.046875 0.423616
v -0.859832 -0.046875 0.408612
v -1.000000 0.000000 0.000000
v -0.941421 0.000000 -0.141421
v -0.800000 0.000000 -0.200000
v -0.658579 0.000000 -0.141421
v -0.600000 0.000000 0.000000
v -0.658579 0.000000 0.141421
v -0.800000 0.000000 0.200000
v -0.941421 0.000000 0.141421
v -0.956940 0.046875 -0.290285
v -0.859832 0.046875 -0.408612
v -0.707495 0.046875 -0.423616
v -0.589168 0.046875 -0.326507
v -0.574164 0.046875 -0.174171
v -0.671273 0.046875 -0.055843
v -0.823609 0.046875 -0.040840
v -0.941937 0.046875 -0.137948
v -0.831470 0.093750 -0.555570
v -0.704194 0.093750 -0.640613
v -0.554062 0.093750 -0.610750
v -0.469019 0.093750 -0.483474
v -0.498882 0.093750 -0.333342
v -0.626158 0.093750 -0.248299
v -0.776290 0.093750 -0.278162
v -0.861333 0.093750 -0.405438
v -0.634393 0.140625 -0.773010
v -0.487911 0.140625 -0.817445
v -0.352913 0.140625 -0.745287
v -0.308478 0.140625 -0.598805
v -0.380636 0.140625 -0.463806
v -0.527118 0.140625 -0.419371
v -0.662117 0.140625 -0.491530
v -0.706552 0.140625 -0.638012
v -0.382683 0.187500 -0.923880
v -0.229610 0.187500 -0.923880
v -0.121371 0.187500 -0.815640
v -0.121371 0.187500 -0.662567
v -0.229610 0.187500 -0.554328
v -0.382683 0.187500 -0.554328
v -0.490923 0.187500 -0.662567
v -0.490923 0.187500 -0.815640
v -0.098017 0.234375 -0.995185
v 0.048465 0.234375 -0.950750
v 0.120623 0.234375 -0.815751
v 0.076188 0.234375 -0.669269
v -0.058810 0.234375 -0.597111
v -0.205292 0.234375 -0.641546
v -0.277451 0.234375 -0.776544
v -0.233016 0.234375 -0.923026
v 0.195090 0.281250 -0.980785
v 0.322366 0.281250 -0.895742
v 0.352229 0.281250 -0.745610
v 0.267186 0.281250 -0.618334
v 0.117054 0.281250 -0.588471
v -0.010222 0.281250 -0.673514
v -0.040085 0.281250 -0.823646
v 0.044958 0.281250 -0.950922
v 0.471397 0.328125 -0.881921
v 0.568505 0.328125 -0.763594
v 0.553502 0.328125 -0.611258
v 0.435174 0.328125 -0.514149
v 0.282838 0.328125 -0.529153
v 0.185729 0.328125 -0.647480
v 0.200733 0.328125 -0.799816
v 0.319060 0.328125 -0.896925
v 0.707107 0.375000 -0.707107
v 0.765685 0.375000 -0.565685
v 0.707107 0.375000 -0.424264
v 0.565685 0.375000 -0.365685
v 0.424264 0.375000 -0.424264
v 0.365685 0.375000 -0.565685
v 0.424264 0.375000 -0.707107
v 0.565685 0.375000 -0.765685
v 0.881921 0.421875 -0.471397
v 0.896925 0.421875 -0.319060
v 0.799816 0.421875 -0.200733
v 0.647480 0.421875 -0.185729
v 0.529153 0.421875 -0.282838
v 0.514149 0.421875 -0.435174
v 0.611258 0.421875 -0.553502
v 0.763594 0.421875 -0.568505
v 0.980785 0.468750 -0.195090
v 0.950922 0.468750 -0.044958
v 0.823646 0.468750 0.040085
v 0.673514 0.468750 0.010222
v 0.588471 0.468750 -0.117054
v 0.618334 0.468750 -0.267186
v 0.745610 0.468750 -0.352229
v 0.895742 0.468750 -0.322366
v 0.995185 0.515625 0.098017
v 0.923026 0.515625 0.233016
v 0.776544 0.515625 0.277451
v 0.641546 0.515625 0.205292
v 0.597111 0.515625 0.058810
v 0.669269 0.515625 -0.076188
v 0.815751 0.515625 -0.120623
v 0.950750 0.515625 -0.048465
v 0.923880 0.562500 0.382683
v 0.815640 0.562500 0.490923
v 0.662567 0.562500 0.490923
v 0.554328 0.562500 0.382683
v 0.554328 0.562500 0.229610
v 0.662567 0.562500 0.121371
v 0.815640 0.562500 0.121371
v 0.923880 0.562500 0.229610
v 0.773010 0.609375 0.634393
v 0.638012 0.609375 0.706552
v 0.491530 0.609375 0.662117
v 0.419371 0.609375 0.527118
v 0.463806 0.609375 0.380636
v 0.598805 0.609375 0.308478
v 0.745287 0.609375 0.352913
v 0.817445 0.609375 0.487911
v 0.555570 0.656250 0.831470
v 0.405438 0.656250 0.861333
v 0.278162 0.656250 0.776290
v 0.248299 0.656250 0.626158
v 0.333342 0.656250 0.498882
v 0.483474 0.656250 0.469019
v 0.610750 0.656250 0.554062
v 0.640613 0.656250 0.704194
v 0.290285 0.703125 0.956940
v 0.137948 0.703125 0.941937
v 0.040840 0.703125 0.823609
v 0.055843 0.703125 0.671273
v 0.174171 0.703125 0.574164
v 0.326507 0.703125 0.589168
v 0.423616 0.703125 0.707495
v 0.408612 0.703125 0.859832
v 0.000000 0.750000 1.000000
v -0.141421 0.750000 0.941421
v -0.200000 0.750000 0.800000
v -0.141421 0.750000 0.658579
v 0.000000 0.750000 0.600000
v 0.141421 0.750000 0.658579
v 0.200000 0.750000 0.800000
v 0.141421 0.750000 0.941421
v -0.290285 0.796875 0.956940
v -0.408612 0.796875 0.859832
v -0.423616 0.796875 0.707495
v -0.326507 0.796875 0.589168
v -0.174171 0.796875 0.574164
v -0.055843 0.796875 0.671273
v -0.040840 0.796875 0.823609
v -0.137948 0.796875 0.941937
v -0.555570 0.843750 0.831470
v -0.640613 0.843750 0.704194
v -0.610750 0.843750 0.554062
v -0.483474 0.843750 0.469019
v -0.333342 0.843750 0.498882
v -0.248299 0.843750 0.626158
v -0.278162 0.843750 0.776290
v -0.405438 0.843750 0.861333
v -0.773010 0.890625 0.634393
v -0.817445 0.890625 0.487911
v -0.745287 0.890625 0.352913
v -0.598805 0.890625 0.308478
v -0.463806 0.890625 0.380636
v -0.419371 0.890625 0.527118
v -0.491530 0.890625 0.662117
v -0.638012 0.890625 0.706552
v -0.923880 0.937500 0.382683
v -0.923880 0.937500 0.229610
v -0.815640 0.937500 0.121371
v -0.662567 0.937500 0.121371
v -0.554328 0.937500 0.229610
v -0.554328 0.937500 0.382683
v -0.662567 0.937500 0.490923
v -0.815640 0.937500 0.490923
v -0.995185 0.984375 0.098017
v -0.950750 0.984375 -0.048465
v -0.815751 0.984375 -0.120623
v -0.669269 0.984375 -0.076188
v -0.597111 0.984375 0.058810
v -0.641546 0.984375 0.205292
v -0.776544 0.984375 0.277451
v -0.923026 0.984375 0.233016
v -0.980785 1.031250 -0.195090
v -0.895742 1.031250 -0.322366
v -0.745610 1.031250 -0.352229
v -0.618334 1.031250 -0.267186
v -0.588471 1.031250 -0.117054
v -0.673514 1.031250 0.010222
v -0.823646 1.031250 0.040085
v -0.950922 1.031250 -0.044958
v -0.881921 1.078125 -0.471397
v -0.763594 1.078125 -0.568505
v -0.611258 1.078125 -0.553502
v -0.514149 1.078125 -0.435174
v -0.529153 1.078125 -0.282838
v -0.647480 1.078125 -0.185729
v -0.799816 1.078125 -0.200733
v -0.896925 1.078125 -0.319060
v -0.707107 1.125000 -0.707107
v -0.565685 1.125000 -0.765685
v -0.424264 1.125000 -0.707107
v -0.365685 1.125000 -0.565685
v -0.424264 1.125000 -0.424264
v -0.565685 1.125000 -0.365685
v -0.707107 1.125000 -0.424264
v -0.765685 1.125000 -0.565685
v -0.471397 1.171875 -0.881921
v -0.319060 1.171875 -0.896925
v -0.200733 1.171875 -0.799816
v -0.185729 1.171875 -0.647480
v -0.282838 1.171875 -0.529153
v -0.435174 1.171875 -0.514149
v -0.553502 1.171875 -0.611258
v -0.568505 1.171875 -0.763594
v -0.195090 1.218750 -0.980785
v -0.044958 1.218750 -0.950922
v 0.040085 1.218750 -0.823646
v 0.010222 1.218750 -0.673514
v -0.117054 1.218750 -0.588471
v -0.267186 1.218750 -0.618334
v -0.352229 1.218750 -0.745610
v -0.322366 1.218750 -0.895742
v 0.098017 1.265625 -0.995185
v 0.233016 1.265625 -0.923026
v 0.277451 1.265625 -0.776544
v 0.205292 1.265625 -0.641546
v 0.058810 1.265625 -0.597111
v -0.076188 1.265625 -0.669269
v -0.120623 1.265625 -0.815751
v -0.048465 1.265625 -0.950750
v 0.382683 1.312500 -0.923880
v 0.490923 1.312500 -0.815640
v 0.490923 1.312500 -0.662567
v 0.382683 1.312500 -0.554328
v 0.229610 1.312500 -0.554328
v 0.121371 1.312500 -0.662567
v 0.121371 1.312500 -0.815640
v 0.229610 1.312500 -0.923880
v 0.634393 1.359375 -0.773010
v 0.706552 1.359375 -0.638012
v 0.662117 1.359375 -0.491530
v 0.527118 1.359375 -0.419371
v 0.380636 1.359375 -0.463806
v 0.308478 1.359375 -0.598805
v 0.352913 1.359375 -0.745287
v 0.487911 1.359375 -0.817445
v 0.831470 1.406250 -0.555570
v 0.861333 1.406250 -0.405438
v 0.776290 1.406250 -0.278162
v 0.626158 1.406250 -0.248299
v 0.498882 1.406250 -0.333342
v 0.469019 1.406250 -0.483474
v 0.554062 1.406250 -0.610750
v 0.704194 1.406250 -0.640613
v 0.956940 1.453125 -0.290285
v 0.941937 1.453125 -0.137948
v 0.823609 1.453125 -0.040840
v 0.671273 1.453125 -0.055843
v 0.574164 1.453125 -0.174171
v 0.589168 1.453125 -0.326507
v 0.707495 1.453125 -0.423616
v 0.859832 1.453125 -0.408612
v 1.000000 1.500000 -0.000000
v 0.941421 1.500000 0.141421
v 0.800000 1.500000 0.200000
v 0.658579 1.500000 0.141421
v 0.600000 1.500000 -0.000000
v 0.658579 1.500000 -0.141421
v 0.800000 1.500000 -0.200000
v 0.941421 1.500000 -0.141421

f 1 2 10
f 1 10 9
f 2 3 11
f 2 11 10
f 3 4 12
f 3 12 11
f 4 5 13
f 4 13 12
f 5 6 14
f 5 14 13
f 6 7 15
f 6 15 14
f 7 8 16
f 7 16 15
f 8 1 9
f 8 9 16
f 9 10 18
f 9 18 17
f 10 11 19
f 10 19 18
f 11 12 20
f 11 20 19
f 12 13 21
f 12 21 20
f 13 14 22
f 13 22 21
f 14 15 23
f 14 23 22
f 15 16 24
f 15 24 23
f 16 9 17
f 16 17 24
f 17 18 26
f 17 26 25
f 18 19 27
f 18 27 26
f 19 20 28
f 19 28 27
f 20 21 29
f 20 29 28
f 21 22 30
f 21 30 29
f 22 23 31
f 22 31 30
f 23 24 32
f 23 32 31
f 24 17 25
f 24 25 32
f 25 26 34
f 25 34 33
f 26 27 35
f 26 35 34
f 27 28 36
f 27 36 35
f 28 29 37
f 28 37 36
f 29 30 38
f 29 38 37
f 30 31 39
f 30 39 38
f 31 32 40
f 31 40 39
f 32 25 33
f 32 33 40
f 33 34 42
f 33 42 41
f 34 35 43
f 34 43 42
f 35 36 44
f 35 44 43
f 36 37 45
f 36 45 44
f 37 38 46
f 37 46 45
f 38 39 47
f 38 47 46
f 39 40 48
f 39 48 47
f 40 33 41
f 40 41 48
f 41 42 50
f 41 50 49
f 42 43 51
f 42 51 50
f 43 44 52
f 43 52 51
f 44 45 53
f 44 53 52
f 45 46 54
f 45 54 53
f 46 47 55
f 46 55 54
f 47 48 56
f 47 56 55
f 48 41 49
f 48 49 56
f 49 50 58
f 49 58 57
f 50 51 59
f 50 59 58
f 51 52 60
f 51 60 59
f 52 53 61
f 52 61 60
f 53 54 62
f 53 62 61
f 54 55 63
f 54 63 62
f 55 56 64
f 55 64 63
f 56 49 57
f 56 57 64
f 57 58 66
f 57 66 65
f 58 59 67
f 58 67 66
f 59 60 68
f 59 68 67
f 60 61 69
f 60 69 68
f 61 62 70
f 61 70 69
f 62 63 71
f 62 71 70
f 63 64 72
f 63 72 71
f 64 57 65
f 64 65 72
f 65 66 74
f 65 74 73
f 66 67 75
f 66 75 74
f 67 68 76
f 67 76 75
f 68 69 77
f 68 77 76
f 69 70 78
f 69 78 77
f 70 71 79
f 70 79 78
f 71 72 80
f 71 80 79
f 72 65 73
f 72 73 80
f 73 74 82
f 73 82 81
f 74 75 83
f 74 83 82
f 75 76 84
f 75 84 83
f 76 77 85
f 76 85 84
f 77 78 86
f 77 86 85
f 78 79 87
f 78 87 86
f 79 80 88
f 79 88 87
f 80 73 81
f 80 81 88
f 81 82 90
f 81 90 89
f 82 83 91
f 82 91 90
f 83 84 92
f 83 92 91
f 84 85 93
f 84 93 92
f 85 86 94
f 85 94 93
f 86 87 95
f 86 95 94
f 87 88 96
f 87 96 95
f 88 81 89
f 88 89 96
f 89 90 98
f 89 98 97
f 90 91 99
f 90 99 98
f 91 92 100
f 91 100 99
f 92 93 101
f 92 101 100
f 93 94 102
f 93 102 101
f 94 95 103
f 94 103 102
f 95 96 104
f 95 104 103
f 96 89 97
f 96 97 104
f 97 98 106
f 97 106 105
f 98 99 107
f 98 107 106
f 99 100 108
f 99 108 107
f 100 101 109
f 100 109 108
f 101 102 110
f 101 110 109
f 102 103 111
f 102 111 110
f 103 104 112
f 103 112 111
f 104 97 105
f 104 105 112
f 105 106 114
f 105 114 113
f 106 107 115
f 106 115 114
f 107 108 116
f 107 116 115
f 108 109 117
f 108 117 116
f 109 110 118
f 109 118 117
f 110 111 119
f 110 119 118
f 111 112 120
f 111 120 119
f 112 105 113
f 112 113 120
f 113 114 122
f 113 122 121
f 114 115 123
f 114 123 122
f 115 116 124
f 115 124 123
f 116 117 125
f 116 125 124
f 117 118 126
f 117 126 125
f 118 119 127
f 118 127 126
f 119 120 128
f 119 128 127
f 120 113 121
f 120 121 128
f 121 122 130
f 121 130 129
f 122 123 131
f 122 131 130
f 123 124 132
f 123 132 131
f 124 125 133
f 124 133 132
f 125 126 134
f 125 134 133
f 126 127 135
f 126 135 134
f 127 128 136
f 127 136 135
f 128 121 129
f 128 129 136
f 129 130 138
f 129 138 137
f 130 131 139
f 130 139 138
f 131 132 140
f 131 140 139
f 132 133 141
f 132 141 140
f 133 134 142
f 133 142 141
f 134 135 143
f 134 143 142
f 135 136 144
f 135 144 143
f 136 129 137
f 136 137 144
f 137 138 146
f 137 146 145
f 138 139 147
f 138 147 146
f 139 140 148
f 139 148 147
f 140 141 149
f 140 149 148
f 141 142 150
f 141 150 149
f 142 143 151
f 142 151 150
f 143 144 152
f 143 152 151
f 144 137 145
f 144 145 152
f 145 146 154
f 145 154 153
f 146 147 155
f 146 155 154
f 147 148 156
f 147 156 155
f 148 149 157
f 148 157 156
f 149 150 158
f 149 158 157
f 150 151 159
f 150 159 158
f 151 152 160
f 151 160 159
f 152 145 153
f 152 153 160
f 153 154 162
f 153 162 161
f 154 155 163
f 154 163 162
f 155 156 164
f 155 164 163
f 156 157 165
f 156 165 164
f 157 158 166
f 157 166 165
f 158 159 167
f 158 167 166
f 159 160 168
f 159 168 167
f 160 153 161
f 160 161 168
f 161 162 170
f 161 170 169
f 162 163 171
f 162 171 170
f 163 164 172
f 163 172 171
f 164 165 173
f 164 173 172
f 165 166 174
f 165 174 173
f 166 167 175
f 166 175 174
f 167 168 176
f 167 176 175
f 168 161 169
f 168 169 176
f 169 170 178
f 169 178 177
f 170 171 179
f 170 179 178
f 171 172 180
f 171 180 179
f 172 173 181
f 172 181 180
f 173 174 182
f 173 182 181
f 174 175 183
f 174 183 182
f 175 176 184
f 175 184 183
f 176 169 177
f 176 177 184
f 177 178 186
f 177 186 185
f 178 179 187
f 178 187 186
f 179 180 188
f 179 188 187
f 180 181 189
f 180 189 188
f 181 182 190
f 181 190 189
f 182 183 191
f 182 191 190
f 183 184 192
f 183 192 191
f 184 177 185
f 184 185 192
f 185 186 194
f 185 194 193
f 186 187 195
f 186 195 194
f 187 188 196
f 187 196 195
f 188 189 197
f 188 197 196
f 189 190 198
f 189 198 197
f 190 191 199
f 190 199 198
f 191 192 200
f 191 200 199
f 192 185 193
f 192 193 200
f 193 194 202
f 193 202 201
f 194 195 203
f 194 203 202
f 195 196 204
f 195 204 203
f 196 197 205
f 196 205 204
f 197 198 206
f 197 206 205
f 198 199 207
f 198 207 206
f 199 200 208
f 199 208 207
f 200 193 201
f 200 201 208
f 201 202 210
f 201 210 209
f 202 203 211
f 202 211 210
f 203 204 212
f 203 212 211
f 204 205 213
f 204 213 212
f 205 206 214
f 205 214 213
f 206 207 215
f 206 215 214
f 207 208 216
f 207 216 215
f 208 201 209
f 208 209 216
f 209 210 218
f 209 218 217
f 210 211 219
f 210 219 218
f 211 212 220
f 211 220 219
f 212 213 221
f 212 221 220
f 213 214 222
f 213 222 221
f 214 215 223
f 214 223 222
f 215 216 224
f 215 224 223
f 216 209 217
f 216 217 224
f 217 218 226
f 217 226 225
f 218 219 227
f 218 227 226
f 219 220 228
f 219 228 227
f 220 221 229
f 220 229 228
f 221 222 230
f 221 230 229
f 222 223 231
f 222 231 230
f 223 224 232
f 223 232 231
f 224 217 225
f 224 225 232
f 225 226 234
f 225 234 233
f 226 227 235
f 226 235 234
f 227 228 236
f 227 236 235
f 228 229 237
f 228 237 236
f 229 230 238
f 229 238 237
f 230 231 239
f 230 239 238
f 231 232 240
f 231 240 239
f 232 225 233
f 232 233 240
f 233 234 242
f 233 242 241
f 234 235 243
f 234 243 242
f 235 236 244
f 235 244 243
f 236 237 245
f 236 245 244
f 237 238 246
f 237 246 245
f 238 239 247
f 238 247 246
f 239 240 248
f 239 248 247
f 240 233 241
f 240 241 248
f 241 242 250
f 241 250 249
f 242 243 251
f 242 251 250
f 243 244 252
f 243 252 251
f 244 245 253
f 244 253 252
f 245 246 254
f 245 254 253
f 246 247 255
f 246 255 254
f 247 248 256
f 247 256 255
f 248 241 249
f 248 249 256
f 249 250 258
f 249 258 257
f 250 251 259
f 250 259 258
f 251 252 260
f 251 260 259
f 252 253 261
f 252 261 260
f 253 254 262
f 253 262 261
f 254 255 263
f 254 263 262
f 255 256 264
f 255 264 263
f 256 249 257
f 256 257 264
f 257 258 266
f 257 266 265
f 258 259 267
f 258 267 266
f 259 260 268
f 259 268 267
f 260 261 269
f 260 269 268
f 261 262 270
f 261 270 269
f 262 263 271
f 262 271 270
f 263 264 272
f 263 272 271
f 264 257 265
f 264 265 272
f 265 266 274
f 265 274 273
f 266 267 275
f 266 275 274
f 267 268 276
f 267 276 275
f 268 269 277
f 268 277 276
f 269 270 278
f 269 278 277
f 270 271 279
f 270 279 278
f 271 272 280
f 271 280 279
f 272 265 273
f 272 273 280
f 273 274 282
f 273 282 281
f 274 275 283
f 274 283 282
f 275 276 284
f 275 284 283
f 276 277 285
f 276 285 284
f 277 278 286
f 277 286 285
f 278 279 287
f 278 287 286
f 279 280 288
f 279 288 287
f 280 273 281
f 280 281 288
f 281 282 290
f 281 290 289
f 282 283 291
f 282 291 290
f 283 284 292
f 283 292 291
f 284 285 293
f 284 293 292
f 285 286 294
f 285 294 293
f 286 287 295
f 286 295 294
f 287 288 296
f 287 296 295
f 288 281 289
f 288 289 296
f 289 290 298
f 289 298 297
f 290 291 299
f 290 299 298
f 291 292 300
f 291 300 299
f 292 293 301
f 292 301 300
f 293 294 302
f 293 302 301
f 294 295 303
f 294 303 302
f 295 296 304
f 295 304 303
f 296 289 297
f 296 297 304
f 297 298 306
f 297 306 305
f 298 299 307
f 298 307 306
f 299 300 308
f 299 308 307
f 300 301 309
f 300 309 308
f 301 302 310
f 301 310 309
f 302 303 311
f 302 311 310
f 303 304 312
f 303 312 311
f 304 297 305
f 304 305 312
f 305 306 314
f 305 314 313
f 306 307 315
f 306 315 314
f 307 308 316
f 307 316 315
f 308 309 317
f 308 317 316
f 309 310 318
f 309 318 317
f 310 311 319
f 310 319 318
f 311 312 320
f 311 320 319
f 312 305 313
f 312 313 320
f 313 314 322
f 313 322 321
f 314 315 323
f 314 323 322
f 315 316 324
f 315 324 323
f 316 317 325
f 316 325 324
f 317 318 326
f 317 326 325
f 318 319 327
f 318 327 326
f 319 320 328
f 319 328 327
f 320 313 321
f 320 321 328
f 321 322 330
f 321 330 329
f 322 323 331
f 322 331 330
f 323 324 332
f 323 332 331
f 324 325 333
f 324 333 332
f 325 326 334
f 325 334 333
f 326 327 335
f 326 335 334
f 327 328 336
f 327 336 335
f 328 321 329
f 328 329 336
f 329 330 338
f 329 338 337
f 330 331 339
f 330 339 338
f 331 332 340
f 331 340 339
f 332 333 341
f 332 341 340
f 333 334 342
f 333 342 341
f 334 335 343
f 334 343 342
f 335 336 344
f 335 344 343
f 336 329 337
f 336 337 344
f 337 338 346
f 337 346 345
f 338 339 347
f 338 347 346
f 339 340 348
f 339 348 347
f 340 341 349
f 340 349 348
f 341 342 350
f 341 350 349
f 342 343 351
f 342 351 350
f 343 344 352
f 343 352 351
f 344 337 345
f 344 345 352
f 345 346 354
f 345 354 353
f 346 347 355
f 346 355 354
f 347 348 356
f 347 356 355
f 348 349 357
f 348 357 356
f 349 350 358
f 349 358 357
f 350 351 359
f 350 359 358
f 351 352 360
f 351 360 359
f 352 345 353
f 352 353 360
f 353 354 362
f 353 362 361
f 354 355 363
f 354 363 362
f 355 356 364
f 355 364 363
f 356 357 365
f 356 365 364
f 357 358 366
f 357 366 365
f 358 359 367
f 358 367 366
f 359 360 368
f 359 368 367
f 360 353 361
f 360 361 368
f 361 362 370
f 361 370 369
f 362 363 371
f 362 371 370
f 363 364 372
f 363 372 371
f 364 365 373
f 364 373 372
f 365 366 374
f 365 374 373
f 366 367 375
f 366 375 374
f 367 368 376
f 367 376 375
f 368 361 369
f 368 369 376
f 369 370 378
f 369 378 377
f 370 371 379
f 370 379 378
f 371 372 380
f 371 380 379
f 372 373 381
f 372 381 380
f 373 374 382
f 373 382 381
f 374 375 383
f 374 383 382
f 375 376 384
f 375 384 383
f 376 369 377
f 376 377 384
f 377 378 386
f 377 386 385
f 378 379 387
f 378 387 386
f 379 380 388
f 379 388 387
f 380 381 389
f 380 389 388
f 381 382 390
f 381 390 389
f 382 383 391
f 382 391 390
f 383 384 392
f 383 392 391
f 384 377 385
f 384 385 392
f 385 386 394
f 385 394 393
f 386 387 395
f 386 395 394
f 387 388 396
f 387 396 395
f 388 389 397
f 388 397 396
f 389 390 398
f 389 398 397
f 390 391 399
f 390 399 398
f 391 392 400
f 391 400 399
f 392 385 393
f 392 393 400
f 393 394 402
f 393 402 401
f 394 395 403
f 394 403 402
f 395 396 404
f 395 404 403
f 396 397 405
f 396 405 404
f 397 398 406
f 397 406 405
f 398 399 407
f 398 407 406
f 399 400 408
f 399 408 407
f 400 393 401
f 400 401 408
f 401 402 410
f 401 410 409
f 402 403 411
f 402 411 410
f 403 404 412
f 403 412 411
f 404 405 413
f 404 413 412
f 405 406 414
f 405 414 413
f 406 407 415
f 406 415 414
f 407 408 416
f 407 416 415
f 408 401 409
f 408 409 416
f 409 410 418
f 409 418 417
f 410 411 419
f 410 419 418
f 411 412 420
f 411 420 419
f 412 413 421
f 412 421 420
f 413 414 422
f 413 422 421
f 414 415 423
f 414 423 422
f 415 416 424
f 415 424 423
f 416 409 417
f 416 417 424
f 417 418 426
f 417 426 425
f 418 419 427
f 418 427 426
f 419 420 428
f 419 428 427
f 420 421 429
f 420 429 428
f 421 422 430
f 421 430 429
f 422 423 431
f 422 431 430
f 423 424 432
f 423 432 431
f 424 417 425
f 424 425 432
f 425 426 434
f 425 434 433
f 426 427 435
f 426 435 434
f 427 428 436
f 427 436 435
f 428 429 437
f 428 437 436
f 429 430 438
f 429 438 437
f 430 431 439
f 430 439 438
f 431 432 440
f 431 440 439
f 432 425 433
f 432 433 440
f 433 434 442
f 433 442 441
f 434 435 443
f 434 443 442
f 435 436 444
f 435 444 443
f 436 437 445
f 436 445 444
f 437 438 446
f 437 446 445
f 438 439 447
f 438 447 446
f 439 440 448
f 439 448 447
f 440 433 441
f 440 441 448
f 441 442 450
f 441 450 449
f 442 443 451
f 442 451 450
f 443 444 452
f 443 452 451
f 444 445 453
f 444 453 452
f 445 446 454
f 445 454 453
f 446 447 455
f 446 455 454
f 447 448 456
f 447 456 455
f 448 441 449
f 448 449 456
f 449 450 458
f 449 458 457
f 450 451 459
f 450 459 458
f 451 452 460
f 451 460 459
f 452 453 461
f 452 461 460
f 453 454 462
f 453 462 461
f 454 455 463
f 454 463 462
f 455 456 464
f 455 464 463
f 456 449 457
f 456 457 464
f 457 458 466
f 457 466 465
f 458 459 467
f 458 467 466
f 459 460 468
f 459 468 467
f 460 461 469
f 460 469 468
f 461 462 470
f 461 470 469
f 462 463 471
f 462 471 470
f 463 464 472
f 463 472 471
f 464 457 465
f 464 465 472
f 465 466 474
f 465 474 473
f 466 467 475
f 466 475 474
f 467 468 476
f 467 476 475
f 468 469 477
f 468 477 476
f 469 470 478
f 469 478 477
f 470 471 479
f 470 479 478
f 471 472 480
f 471 480 479
f 472 465 473
f 472 473 480
f 473 474 482
f 473 482 481
f 474 475 483
f 474 483 482
f 475 476 484
f 475 484 483
f 476 477 485
f 476 485 484
f 477 478 486
f 477 486 485
f 478 479 487
f 478 487 486
f 479 480 488
f 479 488 487
f 480 473 481
f 480 481 488
f 481 482 490
f 481 490 489
f 482 483 491
f 482 491 490
f 483 484 492
f 483 492 491
f 484 485 493
f 484 493 492
f 485 486 494
f 485 494 493
f 486 487 495
f 486 495 494
f 487 488 496
f 487 496 495
f 488 481 489
f 488 489 496
f 489 490 498
f 489 498 497
f 490 491 499
f 490 499 498
f 491 492 500
f 491 500 499
f 492 493 501
f 492 501 500
f 493 494 502
f 493 502 501
f 494 495 503
f 494 503 502
f 495 496 504
f 495 504 503
f 496 489 497
f 496 497 504
f 497 498 506
f 497 506 505
f 498 499 507
f 498 507 506
f 499 500 508
f 499 508 507
f 500 501 509
f 500 509 508
f 501 502 510
f 501 510 509
f 502 503 511
f 502 511 510
f 503 504 512
f 503 512 511
f 504 497 505
f 504 505 512
f 505 506 514
f 505 514 513
f 506 507 515
f 506 515 514
f 507 508 516
f 507 516 515
f 508 509 517
f 508 517 516
f 509 510 518
f 509 518 517
f 510 511 519
f 510 519 518
f 511 512 520
f 511 520 519
f 512 505 513
f 512 513 520
