# Generated by VESAsterizer modelgen
# Vertices: 384, Faces: 1104

v 0.300000 -1.500000 0.000000
v 0.600000 -1.500000 0.000000
v 0.212132 -1.500000 0.212132
v 0.424264 -1.500000 0.424264
v 0.000000 -1.500000 0.300000
v 0.000000 -1.500000 0.600000
v -0.212132 -1.500000 0.212132
v -0.424264 -1.500000 0.424264
v -0.300000 -1.500000 0.000000
v -0.600000 -1.500000 0.000000
v -0.212132 -1.500000 -0.212132
v -0.424264 -1.500000 -0.424264
v -0.000000 -1.500000 -0.300000
v -0.000000 -1.500000 -0.600000
v 0.212132 -1.500000 -0.212132
v 0.424264 -1.500000 -0.424264
v 0.354434 -1.369565 0.099308
v 0.735638 -1.369565 0.206116
v 0.180401 -1.369565 0.320844
v 0.374429 -1.369565 0.665921
v -0.099308 -1.369565 0.354434
v -0.206116 -1.369565 0.735638
v -0.320844 -1.369565 0.180401
v -0.665921 -1.369565 0.374429
v -0.354434 -1.369565 -0.099308
v -0.735638 -1.369565 -0.206116
v -0.180401 -1.369565 -0.320844
v -0.374429 -1.369565 -0.665921
v 0.099308 -1.369565 -0.354434
v 0.206116 -1.369565 -0.735638
v 0.320844 -1.369565 -0.180401
v 0.665921 -1.369565 -0.374429
v 0.371586 -1.239130 0.225966
v 0.771705 -1.239130 0.469284
v 0.102968 -1.239130 0.422533
v 0.213844 -1.239130 0.877512
v -0.225966 -1.239130 0.371586
v -0.469284 -1.239130 0.771705
v -0.422533 -1.239130 0.102968
v -0.877512 -1.239130 0.213844
v -0.371586 -1.239130 -0.225966
v -0.771705 -1.239130 -0.469284
v -0.102968 -1.239130 -0.422533
v -0.213844 -1.239130 -0.877512
v 0.225966 -1.239130 -0.371586
v 0.469284 -1.239130 -0.771705
v 0.422533 -1.239130 -0.102968
v 0.877512 -1.239130 -0.213844
v 0.340731 -1.108696 0.364834
v 0.681666 -1.108696 0.729886
v -0.017043 -1.108696 0.498910
v -0.034097 -1.108696 0.998117
v -0.364834 -1.108696 0.340731
v -0.729886 -1.108696 0.681666
v -0.498910 -1.108696 -0.017043
v -0.998117 -1.108696 -0.034097
v -0.340731 -1.108696 -0.364834
v -0.681666 -1.108696 -0.729886
v 0.017043 -1.108696 -0.498910
v 0.034097 -1.108696 -0.998117
v 0.364834 -1.108696 -0.340731
v 0.729886 -1.108696 -0.681666
v 0.498910 -1.108696 0.017043
v 0.998117 -1.108696 0.034097
v 0.257541 -0.978261 0.497031
v 0.479227 -0.978261 0.924867
v -0.169345 -0.978261 0.533563
v -0.315115 -0.978261 0.992845
v -0.497031 -0.978261 0.257541
v -0.924867 -0.978261 0.479227
v -0.533563 -0.978261 -0.169345
v -0.992845 -0.978261 -0.315115
v -0.257541 -0.978261 -0.497031
v -0.479227 -0.978261 -0.924867
v 0.169345 -0.978261 -0.533563
v 0.315115 -0.978261 -0.992845
v 0.497031 -0.978261 -0.257541
v 0.924867 -0.978261 -0.479227
v 0.533563 -0.978261 0.169345
v 0.992845 -0.978261 0.315115
v 0.125236 -0.847826 0.602669
v 0.210625 -0.847826 1.013585
v -0.337596 -0.847826 0.514707
v -0.567778 -0.847826 0.865648
v -0.602669 -0.847826 0.125236
v -1.013585 -0.847826 0.210625
v -0.514707 -0.847826 -0.337596
v -0.865648 -0.847826 -0.567778
v -0.125236 -0.847826 -0.602669
v -0.210625 -0.847826 -1.013585
v 0.337596 -0.847826 -0.514707
v 0.567778 -0.847826 -0.865648
v 0.602669 -0.847826 -0.125236
v 1.013585 -0.847826 -0.210625
v 0.514707 -0.847826 0.337596
v 0.865648 -0.847826 0.567778
v -0.045410 -0.717391 0.663867
v -0.067809 -0.717391 0.991326
v -0.501534 -0.717391 0.437315
v -0.748921 -0.717391 0.653025
v -0.663867 -0.717391 -0.045410
v -0.991326 -0.717391 -0.067809
v -0.437315 -0.717391 -0.501534
v -0.653025 -0.717391 -0.748921
v 0.045410 -0.717391 -0.663867
v 0.067809 -0.717391 -0.991326
v 0.501534 -0.717391 -0.437315
v 0.748921 -0.717391 -0.653025
v 0.663867 -0.717391 0.045410
v 0.991326 -0.717391 0.067809
v 0.437315 -0.717391 0.501534
v 0.653025 -0.717391 0.748921
v -0.237257 -0.586957 0.667578
v -0.314227 -0.586957 0.884150
v -0.639815 -0.586957 0.304283
v -0.847381 -0.586957 0.402996
v -0.667578 -0.586957 -0.237257
v -0.884150 -0.586957 -0.314227
v -0.304283 -0.586957 -0.639815
v -0.402996 -0.586957 -0.847381
v 0.237257 -0.586957 -0.667578
v 0.314227 -0.586957 -0.884150
v 0.639815 -0.586957 -0.304283
v 0.847381 -0.586957 -0.402996
v 0.667578 -0.586957 0.237257
v 0.884150 -0.586957 0.314227
v 0.304283 -0.586957 0.639815
v 0.402996 -0.586957 0.847381
v -0.429017 -0.456522 0.607779
v -0.514735 -0.456522 0.729213
v -0.733125 -0.456522 0.126404
v -0.879604 -0.456522 0.151659
v -0.607779 -0.456522 -0.429017
v -0.729213 -0.456522 -0.514735
v -0.126404 -0.456522 -0.733125
v -0.151659 -0.456522 -0.879604
v 0.429017 -0.456522 -0.607779
v 0.514735 -0.456522 -0.729213
v 0.733125 -0.456522 -0.126404
v 0.879604 -0.456522 -0.151659
v 0.607779 -0.456522 0.429017
v 0.729213 -0.456522 0.514735
v 0.126404 -0.456522 0.733125
v 0.151659 -0.456522 0.879604
v -0.598175 -0.326087 0.486651
v -0.679232 -0.326087 0.552596
v -0.767088 -0.326087 -0.078859
v -0.871034 -0.326087 -0.089545
v -0.486651 -0.326087 -0.598175
v -0.552596 -0.326087 -0.679232
v 0.078859 -0.326087 -0.767088
v 0.089545 -0.326087 -0.871034
v 0.598175 -0.326087 -0.486651
v 0.679232 -0.326087 -0.552596
v 0.767088 -0.326087 0.078859
v 0.871034 -0.326087 0.089545
v 0.486651 -0.326087 0.598175
v 0.552596 -0.326087 0.679232
v -0.078859 -0.326087 0.767088
v -0.089545 -0.326087 0.871034
v -0.724177 -0.195652 0.314554
v -0.823433 -0.195652 0.357667
v -0.734494 -0.195652 -0.289647
v -0.835164 -0.195652 -0.329346
v -0.314554 -0.195652 -0.724177
v -0.357667 -0.195652 -0.823433
v 0.289647 -0.195652 -0.734494
v 0.329346 -0.195652 -0.835164
v 0.724177 -0.195652 -0.314554
v 0.823433 -0.195652 -0.357667
v 0.734494 -0.195652 0.289647
v 0.835164 -0.195652 0.329346
v 0.314554 -0.195652 0.724177
v 0.357667 -0.195652 0.823433
v -0.289647 -0.195652 0.734494
v -0.329346 -0.195652 0.835164
v -0.791394 -0.065217 0.108775
v -0.948806 -0.065217 0.130410
v -0.636515 -0.065217 -0.482685
v -0.763121 -0.065217 -0.578693
v -0.108775 -0.065217 -0.791394
v -0.130410 -0.065217 -0.948806
v 0.482685 -0.065217 -0.636515
v 0.578693 -0.065217 -0.763121
v 0.791394 -0.065217 -0.108775
v 0.948806 -0.065217 -0.130410
v 0.636515 -0.065217 0.482685
v 0.763121 -0.065217 0.578693
v 0.108775 -0.065217 0.791394
v 0.130410 -0.065217 0.948806
v -0.482685 -0.065217 0.636515
v -0.578693 -0.065217 0.763121
v -0.791394 0.065217 -0.108775
v -1.033237 0.065217 -0.142015
v -0.482685 0.065217 -0.636515
v -0.630189 0.065217 -0.831029
v 0.108775 0.065217 -0.791394
v 0.142015 0.065217 -1.033237
v 0.636515 0.065217 -0.482685
v 0.831029 0.065217 -0.630189
v 0.791394 0.065217 0.108775
v 1.033237 0.065217 0.142015
v 0.482685 0.065217 0.636515
v 0.630189 0.065217 0.831029
v -0.108775 0.065217 0.791394
v -0.142015 0.065217 1.033237
v -0.636515 0.065217 0.482685
v -0.831029 0.065217 0.630189
v -0.724177 0.195652 -0.314554
v -1.038802 0.195652 -0.451216
v -0.289647 0.195652 -0.734494
v -0.415487 0.195652 -1.053602
v 0.314554 0.195652 -0.724177
v 0.451216 0.195652 -1.038802
v 0.734494 0.195652 -0.289647
v 1.053602 0.195652 -0.415487
v 0.724177 0.195652 0.314554
v 1.038802 0.195652 0.451216
v 0.289647 0.195652 0.734494
v 0.415487 0.195652 1.053602
v -0.314554 0.195652 0.724177
v -0.451216 0.195652 1.038802
v -0.734494 0.195652 0.289647
v -1.053602 0.195652 0.415487
v -0.598175 0.326087 -0.486651
v -0.932814 0.326087 -0.758901
v -0.078859 0.326087 -0.767088
v -0.122975 0.326087 -1.196223
v 0.486651 0.326087 -0.598175
v 0.758901 0.326087 -0.932814
v 0.767088 0.326087 -0.078859
v 1.196223 0.326087 -0.122975
v 0.598175 0.326087 0.486651
v 0.932814 0.326087 0.758901
v 0.078859 0.326087 0.767088
v 0.122975 0.326087 1.196223
v -0.486651 0.326087 0.598175
v -0.758901 0.326087 0.932814
v -0.767088 0.326087 0.078859
v -1.196223 0.326087 0.122975
v -0.429017 0.456522 -0.607779
v -0.710206 0.456522 -1.006133
v 0.126404 0.456522 -0.733125
v 0.209252 0.456522 -1.213635
v 0.607779 0.456522 -0.429017
v 1.006133 0.456522 -0.710206
v 0.733125 0.456522 0.126404
v 1.213635 0.456522 0.209252
v 0.429017 0.456522 0.607779
v 0.710206 0.456522 1.006133
v -0.126404 0.456522 0.733125
v -0.209252 0.456522 1.213635
v -0.607779 0.456522 0.429017
v -1.006133 0.456522 0.710206
v -0.733125 0.456522 -0.126404
v -1.213635 0.456522 -0.209252
v -0.237257 0.586957 -0.667578
v -0.403984 0.586957 -1.136703
v 0.304283 0.586957 -0.639815
v 0.518110 0.586957 -1.089430
v 0.667578 0.586957 -0.237257
v 1.136703 0.586957 -0.403984
v 0.639815 0.586957 0.304283
v 1.089430 0.586957 0.518110
v 0.237257 0.586957 0.667578
v 0.403984 0.586957 1.136703
v -0.304283 0.586957 0.639815
v -0.518110 0.586957 1.089430
v -0.667578 0.586957 0.237257
v -1.136703 0.586957 0.403984
v -0.639815 0.586957 -0.304283
v -1.089430 0.586957 -0.518110
v -0.045410 0.717391 -0.663867
v -0.076781 0.717391 -1.122493
v 0.437315 0.717391 -0.501534
v 0.739430 0.717391 -0.848014
v 0.663867 0.717391 -0.045410
v 1.122493 0.717391 -0.076781
v 0.501534 0.717391 0.437315
v 0.848014 0.717391 0.739430
v 0.045410 0.717391 0.663867
v 0.076781 0.717391 1.122493
v -0.437315 0.717391 0.501534
v -0.739430 0.717391 0.848014
v -0.663867 0.717391 0.045410
v -1.122493 0.717391 0.076781
v -0.501534 0.717391 -0.437315
v -0.848014 0.717391 -0.739430
v 0.125236 0.847826 -0.602669
v 0.203043 0.847826 -0.977094
v 0.514707 0.847826 -0.337596
v 0.834483 0.847826 -0.547337
v 0.602669 0.847826 0.125236
v 0.977094 0.847826 0.203043
v 0.337596 0.847826 0.514707
v 0.547337 0.847826 0.834483
v -0.125236 0.847826 0.602669
v -0.203043 0.847826 0.977094
v -0.514707 0.847826 0.337596
v -0.834483 0.847826 0.547337
v -0.602669 0.847826 -0.125236
v -0.977094 0.847826 -0.203043
v -0.337596 0.847826 -0.514707
v -0.547337 0.847826 -0.834483
v 0.257541 0.978261 -0.497031
v 0.388645 0.978261 -0.750051
v 0.533563 0.978261 -0.169345
v 0.805180 0.978261 -0.255553
v 0.497031 0.978261 0.257541
v 0.750051 0.978261 0.388645
v 0.169345 0.978261 0.533563
v 0.255553 0.978261 0.805180
v -0.257541 0.978261 0.497031
v -0.388645 0.978261 0.750051
v -0.533563 0.978261 0.169345
v -0.805180 0.978261 0.255553
v -0.497031 0.978261 -0.257541
v -0.750051 0.978261 -0.388645
v -0.169345 0.978261 -0.533563
v -0.255553 0.978261 -0.805180
v 0.340731 1.108696 -0.364834
v 0.471232 1.108696 -0.504566
v 0.498910 1.108696 -0.017043
v 0.689994 1.108696 -0.023571
v 0.364834 1.108696 0.340731
v 0.504566 1.108696 0.471232
v 0.017043 1.108696 0.498910
v 0.023571 1.108696 0.689994
v -0.340731 1.108696 0.364834
v -0.471232 1.108696 0.504566
v -0.498910 1.108696 0.017043
v -0.689994 1.108696 0.023571
v -0.364834 1.108696 -0.340731
v -0.504566 1.108696 -0.471232
v -0.017043 1.108696 -0.498910
v -0.023571 1.108696 -0.689994
v 0.371586 1.239130 -0.225966
v 0.477586 1.239130 -0.290426
v 0.422533 1.239130 0.102968
v 0.543066 1.239130 0.132342
v 0.225966 1.239130 0.371586
v 0.290426 1.239130 0.477586
v -0.102968 1.239130 0.422533
v -0.132342 1.239130 0.543066
v -0.371586 1.239130 0.225966
v -0.477586 1.239130 0.290426
v -0.422533 1.239130 -0.102968
v -0.543066 1.239130 -0.132342
v -0.225966 1.239130 -0.371586
v -0.290426 1.239130 -0.477586
v 0.102968 1.239130 -0.422533
v 0.132342 1.239130 -0.543066
v 0.354434 1.369565 -0.099308
v 0.450727 1.369565 -0.126288
v 0.320844 1.369565 0.180401
v 0.408011 1.369565 0.229413
v 0.099308 1.369565 0.354434
v 0.126288 1.369565 0.450727
v -0.180401 1.369565 0.320844
v -0.229413 1.369565 0.408011
v -0.354434 1.369565 0.099308
v -0.450727 1.369565 0.126288
v -0.320844 1.369565 -0.180401
v -0.408011 1.369565 -0.229413
v -0.099308 1.369565 -0.354434
v -0.126288 1.369565 -0.450727
v 0.180401 1.369565 -0.320844
v 0.229413 1.369565 -0.408011
v 0.300000 1.500000 -0.000000
v 0.424910 1.500000 -0.000000
v 0.212132 1.500000 0.212132
v 0.300456 1.500000 0.300456
v 0.000000 1.500000 0.300000
v 0.000000 1.500000 0.424910
v -0.212132 1.500000 0.212132
v -0.300456 1.500000 0.300456
v -0.300000 1.500000 0.000000
v -0.424910 1.500000 0.000000
v -0.212132 1.500000 -0.212132
v -0.300456 1.500000 -0.300456
v -0.000000 1.500000 -0.300000
v -0.000000 1.500000 -0.424910
v 0.212132 1.500000 -0.212132
v 0.300456 1.500000 -0.300456

f 1 17 3
f 3 17 19
f 2 4 18
f 4 20 18
f 1 2 18
f 1 18 17
f 3 19 5
f 5 19 21
f 4 6 20
f 6 22 20
f 3 4 20
f 3 20 19
f 5 21 7
f 7 21 23
f 6 8 22
f 8 24 22
f 5 6 22
f 5 22 21
f 7 23 9
f 9 23 25
f 8 10 24
f 10 26 24
f 7 8 24
f 7 24 23
f 9 25 11
f 11 25 27
f 10 12 26
f 12 28 26
f 9 10 26
f 9 26 25
f 11 27 13
f 13 27 29
f 12 14 28
f 14 30 28
f 11 12 28
f 11 28 27
f 13 29 15
f 15 29 31
f 14 16 30
f 16 32 30
f 13 14 30
f 13 30 29
f 15 31 1
f 1 31 17
f 16 2 32
f 2 18 32
f 15 16 32
f 15 32 31
f 17 33 19
f 19 33 35
f 18 20 34
f 20 36 34
f 17 18 34
f 17 34 33
f 19 35 21
f 21 35 37
f 20 22 36
f 22 38 36
f 19 20 36
f 19 36 35
f 21 37 23
f 23 37 39
f 22 24 38
f 24 40 38
f 21 22 38
f 21 38 37
f 23 39 25
f 25 39 41
f 24 26 40
f 26 42 40
f 23 24 40
f 23 40 39
f 25 41 27
f 27 41 43
f 26 28 42
f 28 44 42
f 25 26 42
f 25 42 41
f 27 43 29
f 29 43 45
f 28 30 44
f 30 46 44
f 27 28 44
f 27 44 43
f 29 45 31
f 31 45 47
f 30 32 46
f 32 48 46
f 29 30 46
f 29 46 45
f 31 47 17
f 17 47 33
f 32 18 48
f 18 34 48
f 31 32 48
f 31 48 47
f 33 49 35
f 35 49 51
f 34 36 50
f 36 52 50
f 33 34 50
f 33 50 49
f 35 51 37
f 37 51 53
f 36 38 52
f 38 54 52
f 35 36 52
f 35 52 51
f 37 53 39
f 39 53 55
f 38 40 54
f 40 56 54
f 37 38 54
f 37 54 53
f 39 55 41
f 41 55 57
f 40 42 56
f 42 58 56
f 39 40 56
f 39 56 55
f 41 57 43
f 43 57 59
f 42 44 58
f 44 60 58
f 41 42 58
f 41 58 57
f 43 59 45
f 45 59 61
f 44 46 60
f 46 62 60
f 43 44 60
f 43 60 59
f 45 61 47
f 47 61 63
f 46 48 62
f 48 64 62
f 45 46 62
f 45 62 61
f 47 63 33
f 33 63 49
f 48 34 64
f 34 50 64
f 47 48 64
f 47 64 63
f 49 65 51
f 51 65 67
f 50 52 66
f 52 68 66
f 49 50 66
f 49 66 65
f 51 67 53
f 53 67 69
f 52 54 68
f 54 70 68
f 51 52 68
f 51 68 67
f 53 69 55
f 55 69 71
f 54 56 70
f 56 72 70
f 53 54 70
f 53 70 69
f 55 71 57
f 57 71 73
f 56 58 72
f 58 74 72
f 55 56 72
f 55 72 71
f 57 73 59
f 59 73 75
f 58 60 74
f 60 76 74
f 57 58 74
f 57 74 73
f 59 75 61
f 61 75 77
f 60 62 76
f 62 78 76
f 59 60 76
f 59 76 75
f 61 77 63
f 63 77 79
f 62 64 78
f 64 80 78
f 61 62 78
f 61 78 77
f 63 79 49
f 49 79 65
f 64 50 80
f 50 66 80
f 63 64 80
f 63 80 79
f 65 81 67
f 67 81 83
f 66 68 82
f 68 84 82
f 65 66 82
f 65 82 81
f 67 83 69
f 69 83 85
f 68 70 84
f 70 86 84
f 67 68 84
f 67 84 83
f 69 85 71
f 71 85 87
f 70 72 86
f 72 88 86
f 69 70 86
f 69 86 85
f 71 87 73
f 73 87 89
f 72 74 88
f 74 90 88
f 71 72 88
f 71 88 87
f 73 89 75
f 75 89 91
f 74 76 90
f 76 92 90
f 73 74 90
f 73 90 89
f 75 91 77
f 77 91 93
f 76 78 92
f 78 94 92
f 75 76 92
f 75 92 91
f 77 93 79
f 79 93 95
f 78 80 94
f 80 96 94
f 77 78 94
f 77 94 93
f 79 95 65
f 65 95 81
f 80 66 96
f 66 82 96
f 79 80 96
f 79 96 95
f 81 97 83
f 83 97 99
f 82 84 98
f 84 100 98
f 81 82 98
f 81 98 97
f 83 99 85
f 85 99 101
f 84 86 100
f 86 102 100
f 83 84 100
f 83 100 99
f 85 101 87
f 87 101 103
f 86 88 102
f 88 104 102
f 85 86 102
f 85 102 101
f 87 103 89
f 89 103 105
f 88 90 104
f 90 106 104
f 87 88 104
f 87 104 103
f 89 105 91
f 91 105 107
f 90 92 106
f 92 108 106
f 89 90 106
f 89 106 105
f 91 107 93
f 93 107 109
f 92 94 108
f 94 110 108
f 91 92 108
f 91 108 107
f 93 109 95
f 95 109 111
f 94 96 110
f 96 112 110
f 93 94 110
f 93 110 109
f 95 111 81
f 81 111 97
f 96 82 112
f 82 98 112
f 95 96 112
f 95 112 111
f 97 113 99
f 99 113 115
f 98 100 114
f 100 116 114
f 97 98 114
f 97 114 113
f 99 115 101
f 101 115 117
f 100 102 116
f 102 118 116
f 99 100 116
f 99 116 115
f 101 117 103
f 103 117 119
f 102 104 118
f 104 120 118
f 101 102 118
f 101 118 117
f 103 119 105
f 105 119 121
f 104 106 120
f 106 122 120
f 103 104 120
f 103 120 119
f 105 121 107
f 107 121 123
f 106 108 122
f 108 124 122
f 105 106 122
f 105 122 121
f 107 123 109
f 109 123 125
f 108 110 124
f 110 126 124
f 107 108 124
f 107 124 123
f 109 125 111
f 111 125 127
f 110 112 126
f 112 128 126
f 109 110 126
f 109 126 125
f 111 127 97
f 97 127 113
f 112 98 128
f 98 114 128
f 111 112 128
f 111 128 127
f 113 129 115
f 115 129 131
f 114 116 130
f 116 132 130
f 113 114 130
f 113 130 129
f 115 131 117
f 117 131 133
f 116 118 132
f 118 134 132
f 115 116 132
f 115 132 131
f 117 133 119
f 119 133 135
f 118 120 134
f 120 136 134
f 117 118 134
f 117 134 133
f 119 135 121
f 121 135 137
f 120 122 136
f 122 138 136
f 119 120 136
f 119 136 135
f 121 137 123
f 123 137 139
f 122 124 138
f 124 140 138
f 121 122 138
f 121 138 137
f 123 139 125
f 125 139 141
f 124 126 140
f 126 142 140
f 123 124 140
f 123 140 139
f 125 141 127
f 127 141 143
f 126 128 142
f 128 144 142
f 125 126 142
f 125 142 141
f 127 143 113
f 113 143 129
f 128 114 144
f 114 130 144
f 127 128 144
f 127 144 143
f 129 145 131
f 131 145 147
f 130 132 146
f 132 148 146
f 129 130 146
f 129 146 145
f 131 147 133
f 133 147 149
f 132 134 148
f 134 150 148
f 131 132 148
f 131 148 147
f 133 149 135
f 135 149 151
f 134 136 150
f 136 152 150
f 133 134 150
f 133 150 149
f 135 151 137
f 137 151 153
f 136 138 152
f 138 154 152
f 135 136 152
f 135 152 151
f 137 153 139
f 139 153 155
f 138 140 154
f 140 156 154
f 137 138 154
f 137 154 153
f 139 155 141
f 141 155 157
f 140 142 156
f 142 158 156
f 139 140 156
f 139 156 155
f 141 157 143
f 143 157 159
f 142 144 158
f 144 160 158
f 141 142 158
f 141 158 157
f 143 159 129
f 129 159 145
f 144 130 160
f 130 146 160
f 143 144 160
f 143 160 159
f 145 161 147
f 147 161 163
f 146 148 162
f 148 164 162
f 145 146 162
f 145 162 161
f 147 163 149
f 149 163 165
f 148 150 164
f 150 166 164
f 147 148 164
f 147 164 163
f 149 165 151
f 151 165 167
f 150 152 166
f 152 168 166
f 149 150 166
f 149 166 165
f 151 167 153
f 153 167 169
f 152 154 168
f 154 170 168
f 151 152 168
f 151 168 167
f 153 169 155
f 155 169 171
f 154 156 170
f 156 172 170
f 153 154 170
f 153 170 169
f 155 171 157
f 157 171 173
f 156 158 172
f 158 174 172
f 155 156 172
f 155 172 171
f 157 173 159
f 159 173 175
f 158 160 174
f 160 176 174
f 157 158 174
f 157 174 173
f 159 175 145
f 145 175 161
f 160 146 176
f 146 162 176
f 159 160 176
f 159 176 175
f 161 177 163
f 163 177 179
f 162 164 178
f 164 180 178
f 161 162 178
f 161 178 177
f 163 179 165
f 165 179 181
f 164 166 180
f 166 182 180
f 163 164 180
f 163 180 179
f 165 181 167
f 167 181 183
f 166 168 182
f 168 184 182
f 165 166 182
f 165 182 181
f 167 183 169
f 169 183 185
f 168 170 184
f 170 186 184
f 167 168 184
f 167 184 183
f 169 185 171
f 171 185 187
f 170 172 186
f 172 188 186
f 169 170 186
f 169 186 185
f 171 187 173
f 173 187 189
f 172 174 188
f 174 190 188
f 171 172 188
f 171 188 187
f 173 189 175
f 175 189 191
f 174 176 190
f 176 192 190
f 173 174 190
f 173 190 189
f 175 191 161
f 161 191 177
f 176 162 192
f 162 178 192
f 175 176 192
f 175 192 191
f 177 193 179
f 179 193 195
f 178 180 194
f 180 196 194
f 177 178 194
f 177 194 193
f 179 195 181
f 181 195 197
f 180 182 196
f 182 198 196
f 179 180 196
f 179 196 195
f 181 197 183
f 183 197 199
f 182 184 198
f 184 200 198
f 181 182 198
f 181 198 197
f 183 199 185
f 185 199 201
f 184 186 200
f 186 202 200
f 183 184 200
f 183 200 199
f 185 201 187
f 187 201 203
f 186 188 202
f 188 204 202
f 185 186 202
f 185 202 201
f 187 203 189
f 189 203 205
f 188 190 204
f 190 206 204
f 187 188 204
f 187 204 203
f 189 205 191
f 191 205 207
f 190 192 206
f 192 208 206
f 189 190 206
f 189 206 205
f 191 207 177
f 177 207 193
f 192 178 208
f 178 194 208
f 191 192 208
f 191 208 207
f 193 209 195
f 195 209 211
f 194 196 210
f 196 212 210
f 193 194 210
f 193 210 209
f 195 211 197
f 197 211 213
f 196 198 212
f 198 214 212
f 195 196 212
f 195 212 211
f 197 213 199
f 199 213 215
f 198 200 214
f 200 216 214
f 197 198 214
f 197 214 213
f 199 215 201
f 201 215 217
f 200 202 216
f 202 218 216
f 199 200 216
f 199 216 215
f 201 217 203
f 203 217 219
f 202 204 218
f 204 220 218
f 201 202 218
f 201 218 217
f 203 219 205
f 205 219 221
f 204 206 220
f 206 222 220
f 203 204 220
f 203 220 219
f 205 221 207
f 207 221 223
f 206 208 222
f 208 224 222
f 205 206 222
f 205 222 221
f 207 223 193
f 193 223 209
f 208 194 224
f 194 210 224
f 207 208 224
f 207 224 223
f 209 225 211
f 211 225 227
f 210 212 226
f 212 228 226
f 209 210 226
f 209 226 225
f 211 227 213
f 213 227 229
f 212 214 228
f 214 230 228
f 211 212 228
f 211 228 227
f 213 229 215
f 215 229 231
f 214 216 230
f 216 232 230
f 213 214 230
f 213 230 229
f 215 231 217
f 217 231 233
f 216 218 232
f 218 234 232
f 215 216 232
f 215 232 231
f 217 233 219
f 219 233 235
f 218 220 234
f 220 236 234
f 217 218 234
f 217 234 233
f 219 235 221
f 221 235 237
f 220 222 236
f 222 238 236
f 219 220 236
f 219 236 235
f 221 237 223
f 223 237 239
f 222 224 238
f 224 240 238
f 221 222 238
f 221 238 237
f 223 239 209
f 209 239 225
f 224 210 240
f 210 226 240
f 223 224 240
f 223 240 239
f 225 241 227
f 227 241 243
f 226 228 242
f 228 244 242
f 225 226 242
f 225 242 241
f 227 243 229
f 229 243 245
f 228 230 244
f 230 246 244
f 227 228 244
f 227 244 243
f 229 245 231
f 231 245 247
f 230 232 246
f 232 248 246
f 229 230 246
f 229 246 245
f 231 247 233
f 233 247 249
f 232 234 248
f 234 250 248
f 231 232 248
f 231 248 247
f 233 249 235
f 235 249 251
f 234 236 250
f 236 252 250
f 233 234 250
f 233 250 249
f 235 251 237
f 237 251 253
f 236 238 252
f 238 254 252
f 235 236 252
f 235 252 251
f 237 253 239
f 239 253 255
f 238 240 254
f 240 256 254
f 237 238 254
f 237 254 253
f 239 255 225
f 225 255 241
f 240 226 256
f 226 242 256
f 239 240 256
f 239 256 255
f 241 257 243
f 243 257 259
f 242 244 258
f 244 260 258
f 241 242 258
f 241 258 257
f 243 259 245
f 245 259 261
f 244 246 260
f 246 262 260
f 243 244 260
f 243 260 259
f 245 261 247
f 247 261 263
f 246 248 262
f 248 264 262
f 245 246 262
f 245 262 261
f 247 263 249
f 249 263 265
f 248 250 264
f 250 266 264
f 247 248 264
f 247 264 263
f 249 265 251
f 251 265 267
f 250 252 266
f 252 268 266
f 249 250 266
f 249 266 265
f 251 267 253
f 253 267 269
f 252 254 268
f 254 270 268
f 251 252 268
f 251 268 267
f 253 269 255
f 255 269 271
f 254 256 270
f 256 272 270
f 253 254 270
f 253 270 269
f 255 271 241
f 241 271 257
f 256 242 272
f 242 258 272
f 255 256 272
f 255 272 271
f 257 273 259
f 259 273 275
f 258 260 274
f 260 276 274
f 257 258 274
f 257 274 273
f 259 275 261
f 261 275 277
f 260 262 276
f 262 278 276
f 259 260 276
f 259 276 275
f 261 277 263
f 263 277 279
f 262 264 278
f 264 280 278
f 261 262 278
f 261 278 277
f 263 279 265
f 265 279 281
f 264 266 280
f 266 282 280
f 263 264 280
f 263 280 279
f 265 281 267
f 267 281 283
f 266 268 282
f 268 284 282
f 265 266 282
f 265 282 281
f 267 283 269
f 269 283 285
f 268 270 284
f 270 286 284
f 267 268 284
f 267 284 283
f 269 285 271
f 271 285 287
f 270 272 286
f 272 288 286
f 269 270 286
f 269 286 285
f 271 287 257
f 257 287 273
f 272 258 288
f 258 274 288
f 271 272 288
f 271 288 287
f 273 289 275
f 275 289 291
f 274 276 290
f 276 292 290
f 273 274 290
f 273 290 289
f 275 291 277
f 277 291 293
f 276 278 292
f 278 294 292
f 275 276 292
f 275 292 291
f 277 293 279
f 279 293 295
f 278 280 294
f 280 296 294
f 277 278 294
f 277 294 293
f 279 295 281
f 281 295 297
f 280 282 296
f 282 298 296
f 279 280 296
f 279 296 295
f 281 297 283
f 283 297 299
f 282 284 298
f 284 300 298
f 281 282 298
f 281 298 297
f 283 299 285
f 285 299 301
f 284 286 300
f 286 302 300
f 283 284 300
f 283 300 299
f 285 301 287
f 287 301 303
f 286 288 302
f 288 304 302
f 285 286 302
f 285 302 301
f 287 303 273
f 273 303 289
f 288 274 304
f 274 290 304
f 287 288 304
f 287 304 303
f 289 305 291
f 291 305 307
f 290 292 306
f 292 308 306
f 289 290 306
f 289 306 305
f 291 307 293
f 293 307 309
f 292 294 308
f 294 310 308
f 291 292 308
f 291 308 307
f 293 309 295
f 295 309 311
f 294 296 310
f 296 312 310
f 293 294 310
f 293 310 309
f 295 311 297
f 297 311 313
f 296 298 312
f 298 314 312
f 295 296 312
f 295 312 311
f 297 313 299
f 299 313 315
f 298 300 314
f 300 316 314
f 297 298 314
f 297 314 313
f 299 315 301
f 301 315 317
f 300 302 316
f 302 318 316
f 299 300 316
f 299 316 315
f 301 317 303
f 303 317 319
f 302 304 318
f 304 320 318
f 301 302 318
f 301 318 317
f 303 319 289
f 289 319 305
f 304 290 320
f 290 306 320
f 303 304 320
f 303 320 319
f 305 321 307
f 307 321 323
f 306 308 322
f 308 324 322
f 305 306 322
f 305 322 321
f 307 323 309
f 309 323 325
f 308 310 324
f 310 326 324
f 307 308 324
f 307 324 323
f 309 325 311
f 311 325 327
f 310 312 326
f 312 328 326
f 309 310 326
f 309 326 325
f 311 327 313
f 313 327 329
f 312 314 328
f 314 330 328
f 311 312 328
f 311 328 327
f 313 329 315
f 315 329 331
f 314 316 330
f 316 332 330
f 313 314 330
f 313 330 329
f 315 331 317
f 317 331 333
f 316 318 332
f 318 334 332
f 315 316 332
f 315 332 331
f 317 333 319
f 319 333 335
f 318 320 334
f 320 336 334
f 317 318 334
f 317 334 333
f 319 335 305
f 305 335 321
f 320 306 336
f 306 322 336
f 319 320 336
f 319 336 335
f 321 337 323
f 323 337 339
f 322 324 338
f 324 340 338
f 321 322 338
f 321 338 337
f 323 339 325
f 325 339 341
f 324 326 340
f 326 342 340
f 323 324 340
f 323 340 339
f 325 341 327
f 327 341 343
f 326 328 342
f 328 344 342
f 325 326 342
f 325 342 341
f 327 343 329
f 329 343 345
f 328 330 344
f 330 346 344
f 327 328 344
f 327 344 343
f 329 345 331
f 331 345 347
f 330 332 346
f 332 348 346
f 329 330 346
f 329 346 345
f 331 347 333
f 333 347 349
f 332 334 348
f 334 350 348
f 331 332 348
f 331 348 347
f 333 349 335
f 335 349 351
f 334 336 350
f 336 352 350
f 333 334 350
f 333 350 349
f 335 351 321
f 321 351 337
f 336 322 352
f 322 338 352
f 335 336 352
f 335 352 351
f 337 353 339
f 339 353 355
f 338 340 354
f 340 356 354
f 337 338 354
f 337 354 353
f 339 355 341
f 341 355 357
f 340 342 356
f 342 358 356
f 339 340 356
f 339 356 355
f 341 357 343
f 343 357 359
f 342 344 358
f 344 360 358
f 341 342 358
f 341 358 357
f 343 359 345
f 345 359 361
f 344 346 360
f 346 362 360
f 343 344 360
f 343 360 359
f 345 361 347
f 347 361 363
f 346 348 362
f 348 364 362
f 345 346 362
f 345 362 361
f 347 363 349
f 349 363 365
f 348 350 364
f 350 366 364
f 347 348 364
f 347 364 363
f 349 365 351
f 351 365 367
f 350 352 366
f 352 368 366
f 349 350 366
f 349 366 365
f 351 367 337
f 337 367 353
f 352 338 368
f 338 354 368
f 351 352 368
f 351 368 367
f 353 369 355
f 355 369 371
f 354 356 370
f 356 372 370
f 353 354 370
f 353 370 369
f 355 371 357
f 357 371 373
f 356 358 372
f 358 374 372
f 355 356 372
f 355 372 371
f 357 373 359
f 359 373 375
f 358 360 374
f 360 376 374
f 357 358 374
f 357 374 373
f 359 375 361
f 361 375 377
f 360 362 376
f 362 378 376
f 359 360 376
f 359 376 375
f 361 377 363
f 363 377 379
f 362 364 378
f 364 380 378
f 361 362 378
f 361 378 377
f 363 379 365
f 365 379 381
f 364 366 380
f 366 382 380
f 363 364 380
f 363 380 379
f 365 381 367
f 367 381 383
f 366 368 382
f 368 384 382
f 365 366 382
f 365 382 381
f 367 383 353
f 353 383 369
f 368 354 384
f 354 370 384
f 367 368 384
f 367 384 383
